<svg xmlns="http://www.w3.org/2000/svg" version="1.1" xmlns:xlink="http://www.w3.org/1999/xlink" width="32" height="32"><svg xmlns="http://www.w3.org/2000/svg" width="32" height="32" fill="#000000" viewBox="0 0 256 256" data-darkreader-inline-fill="" style="--darkreader-inline-fill: var(--darkreader-text-000000, #e8e6e3);"><path d="M232,44a12,12,0,0,1-12,12H60a12,12,0,0,1,0-24H220A12,12,0,0,1,232,44ZM176,88a12,12,0,0,0-12-12H44a12,12,0,0,0,0,24H164A12,12,0,0,0,176,88Zm0,44a12,12,0,0,0-12-12H76a12,12,0,0,0,0,24h88A12,12,0,0,0,176,132Zm-4,32H132a12,12,0,0,0,0,24h40a12,12,0,0,0,0-24Zm-32,44H124a12,12,0,0,0,0,24h16a12,12,0,0,0,0-24Z"></path></svg><style>@media (prefers-color-scheme: light) { :root { filter: none; } }
@media (prefers-color-scheme: dark) { :root { filter: invert(100%); } }
</style></svg>